<?xml version="1.0" encoding="UTF-8"?>
<!--Generator: Apple Native CoreSVG 149-->
<!DOCTYPE svg
PUBLIC "-//W3C//DTD SVG 1.1//EN"
       "http://www.w3.org/Graphics/SVG/1.1/DTD/svg11.dtd">
<svg version="1.1" xmlns="http://www.w3.org/2000/svg" xmlns:xlink="http://www.w3.org/1999/xlink" width="3300" height="2200">
 <!--glyph: "uni1003ED.medium", point size: 100.000000, font version: "Version 16.0d18e1", template writer version: "8"-->
 <g id="Notes">
  <rect height="2200" id="artboard" style="fill:white;opacity:1" width="3300" x="0" y="0"/>
  <line id="" style="fill:none;stroke:black;opacity:1;stroke-width:0.5;" x1="263" x2="3036" y1="292" y2="292"/>
  <text style="stroke:none;fill:black;font-family:-apple-system,&quot;SF Pro Display&quot;,&quot;SF Pro Text&quot;,Helvetica,sans-serif;font-weight:bold;" transform="matrix(1 0 0 1 263 322)">Weight/Scale Variations</text>
  <text style="stroke:none;fill:black;font-family:-apple-system,&quot;SF Pro Display&quot;,&quot;SF Pro Text&quot;,Helvetica,sans-serif;text-anchor:middle;" transform="matrix(1 0 0 1 559.711 322)">Ultralight</text>
  <text style="stroke:none;fill:black;font-family:-apple-system,&quot;SF Pro Display&quot;,&quot;SF Pro Text&quot;,Helvetica,sans-serif;text-anchor:middle;" transform="matrix(1 0 0 1 856.422 322)">Thin</text>
  <text style="stroke:none;fill:black;font-family:-apple-system,&quot;SF Pro Display&quot;,&quot;SF Pro Text&quot;,Helvetica,sans-serif;text-anchor:middle;" transform="matrix(1 0 0 1 1153.13 322)">Light</text>
  <text style="stroke:none;fill:black;font-family:-apple-system,&quot;SF Pro Display&quot;,&quot;SF Pro Text&quot;,Helvetica,sans-serif;text-anchor:middle;" transform="matrix(1 0 0 1 1449.84 322)">Regular</text>
  <text style="stroke:none;fill:black;font-family:-apple-system,&quot;SF Pro Display&quot;,&quot;SF Pro Text&quot;,Helvetica,sans-serif;text-anchor:middle;" transform="matrix(1 0 0 1 1746.56 322)">Medium</text>
  <text style="stroke:none;fill:black;font-family:-apple-system,&quot;SF Pro Display&quot;,&quot;SF Pro Text&quot;,Helvetica,sans-serif;text-anchor:middle;" transform="matrix(1 0 0 1 2043.27 322)">Semibold</text>
  <text style="stroke:none;fill:black;font-family:-apple-system,&quot;SF Pro Display&quot;,&quot;SF Pro Text&quot;,Helvetica,sans-serif;text-anchor:middle;" transform="matrix(1 0 0 1 2339.98 322)">Bold</text>
  <text style="stroke:none;fill:black;font-family:-apple-system,&quot;SF Pro Display&quot;,&quot;SF Pro Text&quot;,Helvetica,sans-serif;text-anchor:middle;" transform="matrix(1 0 0 1 2636.69 322)">Heavy</text>
  <text style="stroke:none;fill:black;font-family:-apple-system,&quot;SF Pro Display&quot;,&quot;SF Pro Text&quot;,Helvetica,sans-serif;text-anchor:middle;" transform="matrix(1 0 0 1 2933.4 322)">Black</text>
  <line id="" style="fill:none;stroke:black;opacity:1;stroke-width:0.5;" x1="263" x2="3036" y1="1903" y2="1903"/>
  <g id="" transform="matrix(1 0 0 1 263 1933)">
   <path d="M9.24805 0.830078C13.5547 0.830078 17.1387-2.74414 17.1387-7.05078C17.1387-11.3574 13.5449-14.9316 9.23828-14.9316C4.94141-14.9316 1.36719-11.3574 1.36719-7.05078C1.36719-2.74414 4.95117 0.830078 9.24805 0.830078ZM9.24805-0.654297C5.70312-0.654297 2.87109-3.49609 2.87109-7.05078C2.87109-10.6055 5.69336-13.4473 9.23828-13.4473C12.793-13.4473 15.6348-10.6055 15.6445-7.05078C15.6543-3.49609 12.8027-0.654297 9.24805-0.654297ZM6.39648-6.31836L8.50586-6.31836L8.50586-4.19922C8.50586-3.75977 8.79883-3.45703 9.22852-3.45703C9.67773-3.45703 9.9707-3.75977 9.9707-4.19922L9.9707-6.31836L12.0996-6.31836C12.5391-6.31836 12.8418-6.61133 12.8418-7.04102C12.8418-7.48047 12.5391-7.7832 12.0996-7.7832L9.9707-7.7832L9.9707-9.89258C9.9707-10.3418 9.67773-10.6445 9.22852-10.6445C8.79883-10.6445 8.50586-10.3418 8.50586-9.89258L8.50586-7.7832L6.39648-7.7832C5.94727-7.7832 5.64453-7.48047 5.64453-7.04102C5.64453-6.61133 5.94727-6.31836 6.39648-6.31836Z"/>
  </g>
  <g id="" transform="matrix(1 0 0 1 281.506 1933)">
   <path d="M11.709 2.91016C17.1582 2.91016 21.6699-1.61133 21.6699-7.05078C21.6699-12.5 17.1484-17.0117 11.6992-17.0117C6.25977-17.0117 1.74805-12.5 1.74805-7.05078C1.74805-1.61133 6.26953 2.91016 11.709 2.91016ZM11.709 1.25C7.09961 1.25 3.41797-2.44141 3.41797-7.05078C3.41797-11.6602 7.08984-15.3516 11.6992-15.3516C16.3086-15.3516 20-11.6602 20.0098-7.05078C20.0195-2.44141 16.3184 1.25 11.709 1.25ZM7.98828-6.23047L10.8789-6.23047L10.8789-3.32031C10.8789-2.83203 11.2109-2.5 11.6895-2.5C12.1777-2.5 12.5195-2.83203 12.5195-3.32031L12.5195-6.23047L15.4297-6.23047C15.918-6.23047 16.25-6.5625 16.25-7.04102C16.25-7.5293 15.918-7.87109 15.4297-7.87109L12.5195-7.87109L12.5195-10.7617C12.5195-11.2695 12.1777-11.6016 11.6895-11.6016C11.2109-11.6016 10.8789-11.2598 10.8789-10.7617L10.8789-7.87109L7.98828-7.87109C7.48047-7.87109 7.14844-7.5293 7.14844-7.04102C7.14844-6.5625 7.49023-6.23047 7.98828-6.23047Z"/>
  </g>
  <g id="" transform="matrix(1 0 0 1 304.924 1933)">
   <path d="M14.9707 5.66406C21.9336 5.66406 27.6953-0.0976562 27.6953-7.05078C27.6953-14.0137 21.9238-19.7754 14.9609-19.7754C8.00781-19.7754 2.25586-14.0137 2.25586-7.05078C2.25586-0.0976562 8.01758 5.66406 14.9707 5.66406ZM14.9707 3.84766C8.93555 3.84766 4.08203-1.01562 4.08203-7.05078C4.08203-13.0957 8.92578-17.9492 14.9609-17.9492C21.0059-17.9492 25.8594-13.0957 25.8691-7.05078C25.8789-1.01562 21.0156 3.84766 14.9707 3.84766ZM10.0586-6.14258L14.0625-6.14258L14.0625-2.12891C14.0625-1.5918 14.4336-1.2207 14.9512-1.2207C15.4883-1.2207 15.8594-1.5918 15.8594-2.12891L15.8594-6.14258L19.8828-6.14258C20.4102-6.14258 20.791-6.51367 20.791-7.03125C20.791-7.56836 20.4199-7.94922 19.8828-7.94922L15.8594-7.94922L15.8594-11.9531C15.8594-12.5098 15.4883-12.8809 14.9512-12.8809C14.4336-12.8809 14.0625-12.5 14.0625-11.9531L14.0625-7.94922L10.0586-7.94922C9.50195-7.94922 9.13086-7.56836 9.13086-7.03125C9.13086-6.51367 9.51172-6.14258 10.0586-6.14258Z"/>
  </g>
  <text style="stroke:none;fill:black;font-family:-apple-system,&quot;SF Pro Display&quot;,&quot;SF Pro Text&quot;,Helvetica,sans-serif;font-weight:bold;" transform="matrix(1 0 0 1 263 1953)">Design Variations</text>
  <text style="stroke:none;fill:black;font-family:-apple-system,&quot;SF Pro Display&quot;,&quot;SF Pro Text&quot;,Helvetica,sans-serif;" transform="matrix(1 0 0 1 263 1971)">Symbols are supported in up to nine weights and three scales.</text>
  <text style="stroke:none;fill:black;font-family:-apple-system,&quot;SF Pro Display&quot;,&quot;SF Pro Text&quot;,Helvetica,sans-serif;" transform="matrix(1 0 0 1 263 1989)">For optimal layout with text and other symbols, vertically align</text>
  <text style="stroke:none;fill:black;font-family:-apple-system,&quot;SF Pro Display&quot;,&quot;SF Pro Text&quot;,Helvetica,sans-serif;" transform="matrix(1 0 0 1 263 2007)">symbols with the adjacent text.</text>
  <line id="" style="fill:none;stroke:#00AEEF;stroke-width:0.5;opacity:1.0;" x1="776" x2="776" y1="1919" y2="1933"/>
  <g id="" transform="matrix(1 0 0 1 776 1933)">
   <path d="M3.31055 0.126953C3.82812 0.126953 4.08203-0.0683594 4.26758-0.605469L5.52734-4.0625L11.2891-4.0625L12.5488-0.605469C12.7344-0.0683594 12.9883 0.126953 13.4961 0.126953C14.0137 0.126953 14.3457-0.185547 14.3457-0.673828C14.3457-0.839844 14.3164-0.986328 14.2383-1.20117L9.6582-13.3887C9.43359-13.9941 9.0332-14.2871 8.4082-14.2871C7.80273-14.2871 7.39258-13.9941 7.17773-13.3984L2.59766-1.19141C2.51953-0.976562 2.49023-0.830078 2.49023-0.664062C2.49023-0.175781 2.80273 0.126953 3.31055 0.126953ZM6.00586-5.53711L8.37891-12.1094L8.42773-12.1094L10.8008-5.53711Z"/>
  </g>
  <line id="" style="fill:none;stroke:#00AEEF;stroke-width:0.5;opacity:1.0;" x1="792.836" x2="792.836" y1="1919" y2="1933"/>
  <text style="stroke:none;fill:black;font-family:-apple-system,&quot;SF Pro Display&quot;,&quot;SF Pro Text&quot;,Helvetica,sans-serif;font-weight:bold;" transform="matrix(1 0 0 1 776 1953)">Margins</text>
  <text style="stroke:none;fill:black;font-family:-apple-system,&quot;SF Pro Display&quot;,&quot;SF Pro Text&quot;,Helvetica,sans-serif;" transform="matrix(1 0 0 1 776 1971)">Leading and trailing margins on the left and right side of each symbol</text>
  <text style="stroke:none;fill:black;font-family:-apple-system,&quot;SF Pro Display&quot;,&quot;SF Pro Text&quot;,Helvetica,sans-serif;" transform="matrix(1 0 0 1 776 1989)">can be adjusted by modifying the x-location of the margin guidelines.</text>
  <text style="stroke:none;fill:black;font-family:-apple-system,&quot;SF Pro Display&quot;,&quot;SF Pro Text&quot;,Helvetica,sans-serif;" transform="matrix(1 0 0 1 776 2007)">Modifications are automatically applied proportionally to all</text>
  <text style="stroke:none;fill:black;font-family:-apple-system,&quot;SF Pro Display&quot;,&quot;SF Pro Text&quot;,Helvetica,sans-serif;" transform="matrix(1 0 0 1 776 2025)">scales and weights.</text>
  <g id="" transform="matrix(1 0 0 1 1289 1933)">
   <path d="M2.8418 1.86523L4.54102 3.57422C5.40039 4.44336 6.38672 4.38477 7.31445 3.35938L17.4902-7.85156C17.7539-7.76367 18.0273-7.7832 18.3398-7.8418L19.4043-8.03711L20.0684-7.36328L20.0293-6.80664C19.9902-6.30859 20.1172-5.92773 20.6055-5.44922L21.3672-4.70703C21.8457-4.22852 22.4609-4.19922 22.9297-4.66797L25.8398-7.58789C26.3086-8.05664 26.2891-8.65234 25.8105-9.13086L25.0391-9.89258C24.5605-10.3711 24.1895-10.5273 23.7109-10.4883L23.1348-10.4395L22.4902-11.0742L22.7344-12.1973C22.8613-12.7637 22.7051-13.2031 22.1191-13.7891L19.9219-15.9766C16.582-19.2969 12.1484-19.2188 9.25781-16.3281C8.83789-15.918 8.80859-15.3418 9.04297-14.9512C9.27734-14.5898 9.73633-14.3555 10.3809-14.5215C11.8457-14.8633 13.3691-14.9219 14.7949-13.9844L14.209-12.5293C14.0137-12.0508 13.9844-11.6504 14.1113-11.2891L3.04688-0.898438C2.06055 0.0195312 1.98242 0.996094 2.8418 1.86523ZM10.752-15.957C13.1836-17.7344 16.4746-17.4316 18.7012-15.2051L21.1328-12.793C21.3672-12.5586 21.4062-12.373 21.3379-12.0312L21.0156-10.5469L22.5195-9.0625L23.5059-9.12109C23.7598-9.13086 23.8379-9.11133 24.0332-8.91602L24.6094-8.33984L22.168-5.89844L21.5918-6.47461C21.3965-6.66992 21.3672-6.74805 21.377-7.01172L21.4453-7.98828L19.9512-9.47266L18.4277-9.21875C18.1055-9.15039 17.959-9.17969 17.7148-9.41406L15.7129-11.416C15.459-11.6504 15.4297-11.8164 15.5859-12.1875L16.4648-14.2773C14.9023-15.7324 12.8711-16.3574 10.8398-15.7617C10.6836-15.7227 10.625-15.8496 10.752-15.957ZM5.27344 2.30469L4.10156 1.14258C3.63281 0.683594 3.74023 0.341797 4.14062-0.0195312L14.9512-10.1953L16.416-8.71094L6.42578 2.27539C6.07422 2.67578 5.74219 2.77344 5.27344 2.30469Z"/>
  </g>
  <text style="stroke:none;fill:black;font-family:-apple-system,&quot;SF Pro Display&quot;,&quot;SF Pro Text&quot;,Helvetica,sans-serif;font-weight:bold;" transform="matrix(1 0 0 1 1289 1953)">Exporting</text>
  <text style="stroke:none;fill:black;font-family:-apple-system,&quot;SF Pro Display&quot;,&quot;SF Pro Text&quot;,Helvetica,sans-serif;" transform="matrix(1 0 0 1 1289 1971)">Symbols should be outlined when exporting to ensure the</text>
  <text style="stroke:none;fill:black;font-family:-apple-system,&quot;SF Pro Display&quot;,&quot;SF Pro Text&quot;,Helvetica,sans-serif;" transform="matrix(1 0 0 1 1289 1989)">design is preserved when submitting to Xcode.</text>
  <text id="template-version" style="stroke:none;fill:black;font-family:-apple-system,&quot;SF Pro Display&quot;,&quot;SF Pro Text&quot;,Helvetica,sans-serif;text-anchor:end;" transform="matrix(1 0 0 1 3036 1933)">Template v.2.0</text>
  <text style="stroke:none;fill:black;font-family:-apple-system,&quot;SF Pro Display&quot;,&quot;SF Pro Text&quot;,Helvetica,sans-serif;text-anchor:end;" transform="matrix(1 0 0 1 3036 1951)">Requires Xcode 12 or greater</text>
  <text style="stroke:none;fill:black;font-family:-apple-system,&quot;SF Pro Display&quot;,&quot;SF Pro Text&quot;,Helvetica,sans-serif;text-anchor:end;" transform="matrix(1 0 0 1 3036 1969)">Generated from rectangle.stack</text>
  <text style="stroke:none;fill:black;font-family:-apple-system,&quot;SF Pro Display&quot;,&quot;SF Pro Text&quot;,Helvetica,sans-serif;text-anchor:end;" transform="matrix(1 0 0 1 3036 1987)">Typeset at 100 points</text>
  <text style="stroke:none;fill:black;font-family:-apple-system,&quot;SF Pro Display&quot;,&quot;SF Pro Text&quot;,Helvetica,sans-serif;" transform="matrix(1 0 0 1 263 726)">Small</text>
  <text style="stroke:none;fill:black;font-family:-apple-system,&quot;SF Pro Display&quot;,&quot;SF Pro Text&quot;,Helvetica,sans-serif;" transform="matrix(1 0 0 1 263 1156)">Medium</text>
  <text style="stroke:none;fill:black;font-family:-apple-system,&quot;SF Pro Display&quot;,&quot;SF Pro Text&quot;,Helvetica,sans-serif;" transform="matrix(1 0 0 1 263 1586)">Large</text>
 </g>
 <g id="Guides">
  <g id="H-reference" style="fill:#27AAE1;stroke:none;" transform="matrix(1 0 0 1 339 696)">
   <path d="M0.976562 0L3.66211 0L12.9883-24.4629L45.752-24.4629L55.127 0L57.7637 0L30.6152-70.459L28.125-70.459ZM29.3457-67.1387L29.4434-67.1387L44.873-26.709L13.8672-26.709Z"/>
  </g>
  <line id="Baseline-S" style="fill:none;stroke:#27AAE1;opacity:1;stroke-width:0.5;" x1="263" x2="3036" y1="696" y2="696"/>
  <line id="Capline-S" style="fill:none;stroke:#27AAE1;opacity:1;stroke-width:0.5;" x1="263" x2="3036" y1="625.541" y2="625.541"/>
  <g id="H-reference" style="fill:#27AAE1;stroke:none;" transform="matrix(1 0 0 1 339 1126)">
   <path d="M0.976562 0L3.66211 0L12.9883-24.4629L45.752-24.4629L55.127 0L57.7637 0L30.6152-70.459L28.125-70.459ZM29.3457-67.1387L29.4434-67.1387L44.873-26.709L13.8672-26.709Z"/>
  </g>
  <line id="Baseline-M" style="fill:none;stroke:#27AAE1;opacity:1;stroke-width:0.5;" x1="263" x2="3036" y1="1126" y2="1126"/>
  <line id="Capline-M" style="fill:none;stroke:#27AAE1;opacity:1;stroke-width:0.5;" x1="263" x2="3036" y1="1055.54" y2="1055.54"/>
  <g id="H-reference" style="fill:#27AAE1;stroke:none;" transform="matrix(1 0 0 1 339 1556)">
   <path d="M0.976562 0L3.66211 0L12.9883-24.4629L45.752-24.4629L55.127 0L57.7637 0L30.6152-70.459L28.125-70.459ZM29.3457-67.1387L29.4434-67.1387L44.873-26.709L13.8672-26.709Z"/>
  </g>
  <line id="Baseline-L" style="fill:none;stroke:#27AAE1;opacity:1;stroke-width:0.5;" x1="263" x2="3036" y1="1556" y2="1556"/>
  <line id="Capline-L" style="fill:none;stroke:#27AAE1;opacity:1;stroke-width:0.5;" x1="263" x2="3036" y1="1485.54" y2="1485.54"/>
  <line id="left-margin" style="fill:none;stroke:#00AEEF;stroke-width:0.5;opacity:1.0;" x1="1385.05" x2="1385.05" y1="1030.79" y2="1150.12"/>
  <line id="right-margin" style="fill:none;stroke:#00AEEF;stroke-width:0.5;opacity:1.0;" x1="1514.64" x2="1514.64" y1="1030.79" y2="1150.12"/>
 </g>
 <g id="Symbols">
  <g id="Black-L" transform="matrix(1 0 0 1 2846.9 1556)">
   <path d="M44.6289-104.395L128.662-104.395C128.076-111.279 123.584-115.186 116.309-115.186L56.9336-115.186C49.707-115.186 45.2148-111.279 44.6289-104.395ZM32.0801-83.1055L141.211-83.1055C140.43-90.2832 136.279-94.7266 127.783-94.7266L45.5078-94.7266C37.0117-94.7266 32.8613-90.2832 32.0801-83.1055ZM39.9902 43.1152L133.057 43.1152C148.291 43.1152 156.934 34.4727 156.934 19.2871L156.934-48.4375C156.934-63.6719 148.291-72.2656 133.057-72.2656L39.9902-72.2656C24.707-72.2656 16.0645-63.6719 16.0645-48.4375L16.0645 19.2871C16.0645 34.4727 24.707 43.1152 39.9902 43.1152ZM42.6758 22.8516C38.4766 22.8516 36.3281 20.9961 36.3281 16.4551L36.3281-45.6055C36.3281-50.1465 38.4766-52.0508 42.6758-52.0508L130.322-52.0508C134.57-52.0508 136.719-50.1465 136.719-45.6055L136.719 16.4551C136.719 20.9961 134.57 22.8516 130.322 22.8516Z"/>
  </g>
  <g id="Heavy-L" transform="matrix(1 0 0 1 2550.92 1556)">
   <path d="M44.043-102.686L127.686-102.686C127.148-108.984 123.096-112.549 116.406-112.549L55.3223-112.549C48.6328-112.549 44.5801-108.984 44.043-102.686ZM31.5918-82.4707L140.137-82.4707C139.355-89.1113 135.645-93.1641 127.881-93.1641L43.8477-93.1641C36.084-93.1641 32.373-89.1113 31.5918-82.4707ZM38.8184 41.2109L132.715 41.2109C147.314 41.2109 155.469 33.1055 155.469 18.5547L155.469-49.0723C155.469-63.623 147.314-71.7285 132.715-71.7285L38.8184-71.7285C24.1699-71.7285 16.0645-63.623 16.0645-49.0723L16.0645 18.5547C16.0645 33.1055 24.1699 41.2109 38.8184 41.2109ZM40.918 23.6816C36.084 23.6816 33.5938 21.3867 33.5938 16.2598L33.5938-46.7773C33.5938-51.9043 36.084-54.1992 40.918-54.1992L130.566-54.1992C135.4-54.1992 137.939-51.9043 137.939-46.7773L137.939 16.2598C137.939 21.3867 135.4 23.6816 130.566 23.6816Z"/>
  </g>
  <g id="Bold-L" transform="matrix(1 0 0 1 2255.04 1556)">
   <path d="M43.457-100.732L126.562-100.732C126.123-106.445 122.559-109.668 116.455-109.668L53.5645-109.668C47.4609-109.668 43.8965-106.445 43.457-100.732ZM31.0547-81.7871L138.916-81.7871C138.184-87.793 134.912-91.4062 127.979-91.4062L41.9922-91.4062C35.1074-91.4062 31.8359-87.793 31.0547-81.7871ZM37.5 39.0625L132.324 39.0625C146.24 39.0625 153.809 31.543 153.809 17.7246L153.809-49.7559C153.809-63.5742 146.24-71.0449 132.324-71.0449L37.5-71.0449C23.584-71.0449 16.0645-63.5742 16.0645-49.7559L16.0645 17.7246C16.0645 31.5918 23.584 39.0625 37.5 39.0625ZM38.9648 24.6094C33.4473 24.6094 30.5176 21.8262 30.5176 16.0645L30.5176-48.0957C30.5176-53.8574 33.4473-56.6406 38.9648-56.6406L130.908-56.6406C136.328-56.6406 139.355-53.8574 139.355-48.0957L139.355 16.0645C139.355 21.8262 136.328 24.6094 130.908 24.6094Z"/>
  </g>
  <g id="Semibold-L" transform="matrix(1 0 0 1 1958.92 1556)">
   <path d="M43.0176-99.4141L125.781-99.4141C125.391-104.688 122.168-107.666 116.504-107.666L52.2949-107.666C46.6309-107.666 43.4082-104.688 43.0176-99.4141ZM30.7129-81.2988L138.135-81.2988C137.354-86.8652 134.424-90.1855 128.076-90.1855L40.7227-90.1855C34.4238-90.1855 31.4453-86.8652 30.7129-81.2988ZM36.6211 37.5488L132.08 37.5488C145.508 37.5488 152.637 30.4688 152.637 17.1387L152.637-50.2441C152.637-63.5254 145.508-70.6055 132.08-70.6055L36.6211-70.6055C23.1445-70.6055 16.0645-63.5742 16.0645-50.2441L16.0645 17.1387C16.0645 30.5176 23.1445 37.5488 36.6211 37.5488ZM37.5977 25.2441C31.6406 25.2441 28.418 22.168 28.418 15.918L28.418-49.0234C28.418-55.2246 31.6406-58.3008 37.5977-58.3008L131.104-58.3008C137.012-58.3008 140.283-55.2246 140.283-49.0234L140.283 15.918C140.283 22.168 137.012 25.2441 131.104 25.2441Z"/>
  </g>
  <g id="Medium-L" transform="matrix(1 0 0 1 1662.64 1556)">
   <path d="M42.6758-98.3887L125.244-98.3887C124.854-103.369 121.924-106.152 116.553-106.152L51.3672-106.152C45.9961-106.152 43.0664-103.369 42.6758-98.3887ZM30.4199-80.9082L137.5-80.9082C136.719-86.1816 134.033-89.3066 128.125-89.3066L39.7949-89.3066C33.8867-89.3066 31.2012-86.1816 30.4199-80.9082ZM35.9375 36.4258L131.885 36.4258C144.971 36.4258 151.758 29.6387 151.758 16.748L151.758-50.5859C151.758-63.5254 144.971-70.3125 131.885-70.3125L35.9375-70.3125C22.8516-70.3125 16.0645-63.5742 16.0645-50.5859L16.0645 16.748C16.0645 29.6875 22.8516 36.4258 35.9375 36.4258ZM36.5723 25.6836C30.2246 25.6836 26.8066 22.4121 26.8066 15.8203L26.8066-49.707C26.8066-56.25 30.2246-59.5703 36.5723-59.5703L131.25-59.5703C137.5-59.5703 141.016-56.25 141.016-49.707L141.016 15.8203C141.016 22.4121 137.5 25.6836 131.25 25.6836Z"/>
  </g>
  <g id="Regular-L" transform="matrix(1 0 0 1 1366.49 1556)">
   <path d="M42.2852-97.0703L124.463-97.0703C124.17-101.611 121.533-104.15 116.602-104.15L50.1465-104.15C45.2148-104.15 42.5781-101.611 42.2852-97.0703ZM30.0781-80.4199L136.67-80.4199C135.938-85.3027 133.545-88.0859 128.223-88.0859L38.5254-88.0859C33.2031-88.0859 30.8105-85.3027 30.0781-80.4199ZM35.0586 34.9609L131.641 34.9609C144.238 34.9609 150.635 28.6133 150.635 16.1621L150.635-51.0254C150.635-63.4766 144.238-69.873 131.641-69.873L35.0586-69.873C22.4121-69.873 16.0645-63.5254 16.0645-51.0254L16.0645 16.1621C16.0645 28.6621 22.4121 34.9609 35.0586 34.9609ZM35.2539 26.3184C28.418 26.3184 24.707 22.7051 24.707 15.7227L24.707-50.5859C24.707-57.6172 28.418-61.2305 35.2539-61.2305L131.445-61.2305C138.135-61.2305 141.992-57.6172 141.992-50.5859L141.992 15.7227C141.992 22.7051 138.135 26.3184 131.445 26.3184Z"/>
  </g>
  <g id="Light-L" transform="matrix(1 0 0 1 1070.13 1556)">
   <path d="M42.041-96.3379L123.975-96.3379C123.779-99.8047 121.68-101.953 117.969-101.953L48.0957-101.953C44.3359-101.953 42.2363-99.8047 42.041-96.3379ZM30.0293-80.8105L135.986-80.8105C135.547-84.4727 133.594-86.8164 129.59-86.8164L36.4258-86.8164C32.4707-86.8164 30.5176-84.4727 30.0293-80.8105ZM34.0332 33.5938L131.934 33.5938C143.799 33.5938 149.951 27.4414 149.951 15.7715L149.951-51.8066C149.951-63.5254 143.799-69.6777 131.934-69.6777L34.0332-69.6777C22.168-69.6777 16.0645-63.623 16.0645-51.8066L16.0645 15.7715C16.0645 27.5391 22.168 33.5938 34.0332 33.5938ZM34.1797 27.002C26.709 27.002 22.7051 23.0469 22.7051 15.4297L22.7051-51.4648C22.7051-59.1309 26.709-63.0371 34.1797-63.0371L131.787-63.0371C139.111-63.0371 143.311-59.1309 143.311-51.4648L143.311 15.4297C143.311 23.0469 139.111 27.002 131.787 27.002Z"/>
  </g>
  <g id="Thin-L" transform="matrix(1 0 0 1 773.878 1556)">
   <path d="M41.6992-95.3613L123.34-95.3613C123.291-97.4121 121.924-99.0723 119.727-99.0723L45.3613-99.0723C43.1641-99.0723 41.748-97.4121 41.6992-95.3613ZM29.9805-81.2988L135.107-81.2988C135.01-83.3984 133.643-85.1074 131.396-85.1074L33.6914-85.1074C31.4453-85.1074 30.0781-83.3984 29.9805-81.2988ZM32.666 31.7871L132.373 31.7871C143.262 31.7871 149.023 25.9277 149.023 15.2344L149.023-52.832C149.023-63.5742 143.262-69.4336 132.373-69.4336L32.666-69.4336C21.7773-69.4336 16.0645-63.7207 16.0645-52.832L16.0645 15.2344C16.0645 26.0742 21.7773 31.7871 32.666 31.7871ZM32.8125 27.8809C24.4141 27.8809 19.9707 23.4863 19.9707 15.0391L19.9707-52.6367C19.9707-61.1328 24.4141-65.5273 32.8125-65.5273L132.227-65.5273C140.381-65.5273 145.068-61.1328 145.068-52.6367L145.068 15.0391C145.068 23.4863 140.381 27.8809 132.227 27.8809Z"/>
  </g>
  <g id="Ultralight-L" transform="matrix(1 0 0 1 477.411 1556)">
   <path d="M41.5527-94.873L123.047-94.873C123.047-96.1914 122.021-97.6074 120.654-97.6074L43.9453-97.6074C42.5781-97.6074 41.5039-96.1914 41.5527-94.873ZM29.9805-81.543L134.619-81.543C134.717-82.8613 133.643-84.2285 132.324-84.2285L32.2754-84.2285C30.957-84.2285 29.8828-82.8613 29.9805-81.543ZM31.9824 30.8594L132.617 30.8594C143.018 30.8594 148.535 25.1465 148.535 14.9414L148.535-53.3691C148.535-63.5742 143.018-69.2871 132.617-69.2871L31.9824-69.2871C21.582-69.2871 16.0645-63.7695 16.0645-53.3691L16.0645 14.9414C16.0645 25.3418 21.582 30.8594 31.9824 30.8594ZM32.1289 28.3203C23.1934 28.3203 18.6035 23.7305 18.6035 14.7949L18.6035-53.2715C18.6035-62.1582 23.1934-66.748 32.1289-66.748L132.471-66.748C141.016-66.748 145.996-62.1582 145.996-53.2715L145.996 14.7949C145.996 23.7305 141.016 28.3203 132.471 28.3203Z"/>
  </g>
  <g id="Black-M" transform="matrix(1 0 0 1 2865.53 1126)">
   <path d="M35.2051-90.7715L100.781-90.7715C100.293-96.2402 96.5332-99.5117 90.7715-99.5117L45.2148-99.5117C39.4531-99.5117 35.6934-96.2402 35.2051-90.7715ZM25.4883-73.3398L110.498-73.3398C110.01-79.0527 106.494-82.7637 99.6094-82.7637L36.3281-82.7637C29.4922-82.7637 25.9766-79.0527 25.4883-73.3398ZM31.9824 27.3438L103.76 27.3438C116.016 27.3438 123.291 20.0684 123.291 7.8125L123.291-45.0684C123.291-57.3242 116.016-64.5996 103.76-64.5996L31.9824-64.5996C19.7266-64.5996 12.4512-57.3242 12.4512-45.0684L12.4512 7.8125C12.4512 20.0684 19.7266 27.3438 31.9824 27.3438ZM34.9121 9.0332C32.0801 9.0332 30.7617 7.95898 30.7617 4.88281L30.7617-42.1387C30.7617-45.2148 32.0801-46.3379 34.9121-46.3379L100.83-46.3379C103.662-46.3379 104.98-45.2148 104.98-42.1387L104.98 4.88281C104.98 7.95898 103.662 9.0332 100.83 9.0332Z"/>
  </g>
  <g id="Heavy-M" transform="matrix(1 0 0 1 2569.55 1126)">
   <path d="M34.668-89.0625L99.8535-89.0625C99.3652-94.2383 95.9473-97.2656 90.4785-97.2656L43.9941-97.2656C38.5254-97.2656 35.1074-94.2383 34.668-89.0625ZM24.9512-72.6074L109.521-72.6074C108.984-77.9785 105.811-81.3965 99.3652-81.3965L35.1074-81.3965C28.7109-81.3965 25.4883-77.9785 24.9512-72.6074ZM31.0059 25.5859L103.271 25.5859C115.039 25.5859 121.826 18.8477 121.826 7.08008L121.826-45.5566C121.826-57.2754 115.039-64.0137 103.271-64.0137L31.0059-64.0137C19.1895-64.0137 12.4512-57.2754 12.4512-45.5566L12.4512 7.08008C12.4512 18.8477 19.1895 25.5859 31.0059 25.5859ZM33.252 9.76562C29.9316 9.76562 28.2715 8.30078 28.2715 4.78516L28.2715-43.2129C28.2715-46.7773 29.9316-48.1934 33.252-48.1934L101.025-48.1934C104.297-48.1934 106.006-46.7773 106.006-43.2129L106.006 4.78516C106.006 8.30078 104.297 9.76562 101.025 9.76562Z"/>
  </g>
  <g id="Bold-M" transform="matrix(1 0 0 1 2273.64 1126)">
   <path d="M34.0332-87.1582L98.7793-87.1582C98.3887-91.9922 95.3125-94.6777 90.1855-94.6777L42.627-94.6777C37.5-94.6777 34.4238-91.9922 34.0332-87.1582ZM24.4141-71.7285L108.398-71.7285C107.812-76.7578 104.98-79.834 99.1211-79.834L33.6914-79.834C27.832-79.834 25-76.7578 24.4141-71.7285ZM29.8828 23.6328L102.783 23.6328C114.014 23.6328 120.215 17.4805 120.215 6.29883L120.215-46.0449C120.215-57.2266 114.014-63.3789 102.783-63.3789L29.8828-63.3789C18.6523-63.3789 12.4512-57.2266 12.4512-46.0449L12.4512 6.29883C12.4512 17.4805 18.6523 23.6328 29.8828 23.6328ZM31.3965 10.5957C27.5391 10.5957 25.5371 8.74023 25.5371 4.63867L25.5371-44.3848C25.5371-48.4863 27.5391-50.293 31.3965-50.293L101.27-50.293C105.078-50.293 107.129-48.4863 107.129-44.3848L107.129 4.63867C107.129 8.74023 105.078 10.5957 101.27 10.5957Z"/>
  </g>
  <g id="Semibold-M" transform="matrix(1 0 0 1 1977.5 1126)">
   <path d="M33.6426-85.8887L98.0469-85.8887C97.6562-90.4297 94.873-92.9688 89.9902-92.9688L41.6992-92.9688C36.7676-92.9688 33.9844-90.4297 33.6426-85.8887ZM24.0234-71.0938L107.666-71.0938C106.982-75.9277 104.443-78.8086 98.9258-78.8086L32.7148-78.8086C27.1973-78.8086 24.6582-75.9277 24.0234-71.0938ZM29.1016 22.3145L102.441 22.3145C113.281 22.3145 119.092 16.5527 119.092 5.76172L119.092-46.4355C119.092-57.1777 113.281-62.9395 102.441-62.9395L29.1016-62.9395C18.2617-62.9395 12.4512-57.1777 12.4512-46.4355L12.4512 5.76172C12.4512 16.5527 18.2617 22.3145 29.1016 22.3145ZM30.127 11.1328C25.8789 11.1328 23.6328 8.98438 23.6328 4.54102L23.6328-45.2148C23.6328-49.6582 25.8789-51.7578 30.127-51.7578L101.416-51.7578C105.615-51.7578 107.91-49.6582 107.91-45.2148L107.91 4.54102C107.91 8.98438 105.615 11.1328 101.416 11.1328Z"/>
  </g>
  <g id="Medium-M" transform="matrix(1 0 0 1 1681.2 1126)">
   <path d="M33.3008-84.8633L97.4609-84.8633C97.1191-89.2578 94.5312-91.6016 89.7949-91.6016L40.9668-91.6016C36.2305-91.6016 33.6426-89.2578 33.3008-84.8633ZM23.7305-70.6543L107.08-70.6543C106.396-75.293 104.004-77.9785 98.7793-77.9785L31.9824-77.9785C26.7578-77.9785 24.4141-75.293 23.7305-70.6543ZM28.5156 21.2891L102.148 21.2891C112.695 21.2891 118.262 15.8203 118.262 5.37109L118.262-46.6797C118.262-57.1289 112.695-62.5977 102.148-62.5977L28.5156-62.5977C17.9199-62.5977 12.4512-57.1777 12.4512-46.6797L12.4512 5.37109C12.4512 15.8203 17.9199 21.2891 28.5156 21.2891ZM29.1504 11.5234C24.6582 11.5234 22.168 9.22852 22.168 4.49219L22.168-45.8008C22.168-50.5371 24.6582-52.8809 29.1504-52.8809L101.514-52.8809C106.006-52.8809 108.496-50.5371 108.496-45.8008L108.496 4.49219C108.496 9.22852 106.006 11.5234 101.514 11.5234Z"/>
  </g>
  <g id="Regular-M" transform="matrix(1 0 0 1 1385.05 1126)">
   <path d="M32.9102-83.5938L96.7285-83.5938C96.4355-87.7441 94.0918-89.8926 89.5996-89.8926L40.0391-89.8926C35.5469-89.8926 33.2031-87.7441 32.9102-83.5938ZM23.3398-70.0684L106.299-70.0684C105.566-74.5117 103.467-76.9531 98.584-76.9531L31.0547-76.9531C26.1719-76.9531 24.0723-74.5117 23.3398-70.0684ZM27.7832 19.9707L101.807 19.9707C112.012 19.9707 117.139 14.8926 117.139 4.83398L117.139-47.0703C117.139-57.0801 112.012-62.1582 101.807-62.1582L27.7832-62.1582C17.5293-62.1582 12.4512-57.1289 12.4512-47.0703L12.4512 4.83398C12.4512 14.8926 17.5293 19.9707 27.7832 19.9707ZM27.8809 12.1094C22.998 12.1094 20.3125 9.47266 20.3125 4.39453L20.3125-46.6309C20.3125-51.709 22.998-54.2969 27.8809-54.2969L101.709-54.2969C106.494-54.2969 109.277-51.709 109.277-46.6309L109.277 4.39453C109.277 9.47266 106.494 12.1094 101.709 12.1094Z"/>
  </g>
  <g id="Light-M" transform="matrix(1 0 0 1 1088.66 1126)">
   <path d="M32.666-82.9102L96.2891-82.9102C96.0938-86.084 94.2383-87.9395 90.8203-87.9395L38.1836-87.9395C34.7656-87.9395 32.8613-86.084 32.666-82.9102ZM23.291-70.4102L105.713-70.4102C105.225-73.7793 103.516-75.7812 99.8047-75.7812L29.1992-75.7812C25.4883-75.7812 23.7793-73.7793 23.291-70.4102ZM26.8555 18.75L102.1 18.75C111.621 18.75 116.504 13.8672 116.504 4.44336L116.504-47.7539C116.504-57.1289 111.621-62.0117 102.1-62.0117L26.8555-62.0117C17.2852-62.0117 12.4512-57.1777 12.4512-47.7539L12.4512 4.44336C12.4512 13.916 17.2852 18.75 26.8555 18.75ZM26.9531 12.6953C21.4844 12.6953 18.5059 9.76562 18.5059 4.15039L18.5059-47.4121C18.5059-53.0762 21.4844-55.957 26.9531-55.957L102.002-55.957C107.373-55.957 110.449-53.0762 110.449-47.4121L110.449 4.15039C110.449 9.76562 107.373 12.6953 102.002 12.6953Z"/>
  </g>
  <g id="Thin-M" transform="matrix(1 0 0 1 792.36 1126)">
   <path d="M32.4219-82.0312L95.752-82.0312C95.6543-83.9355 94.4336-85.3516 92.4316-85.3516L35.7422-85.3516C33.6914-85.3516 32.4707-83.9355 32.4219-82.0312ZM23.2422-70.8496L104.883-70.8496C104.736-72.8027 103.564-74.2676 101.416-74.2676L26.709-74.2676C24.6094-74.2676 23.3887-72.8027 23.2422-70.8496ZM25.6348 17.0898L102.49 17.0898C111.133 17.0898 115.674 12.5 115.674 4.00391L115.674-48.6816C115.674-57.1777 111.133-61.7676 102.49-61.7676L25.6348-61.7676C16.9922-61.7676 12.4512-57.2754 12.4512-48.6816L12.4512 4.00391C12.4512 12.5977 16.9922 17.0898 25.6348 17.0898ZM25.7324 13.4766C19.3848 13.4766 16.0645 10.1562 16.0645 3.80859L16.0645-48.4863C16.0645-54.834 19.3848-58.1543 25.7324-58.1543L102.393-58.1543C108.496-58.1543 112.061-54.834 112.061-48.4863L112.061 3.80859C112.061 10.1562 108.496 13.4766 102.393 13.4766Z"/>
  </g>
  <g id="Ultralight-M" transform="matrix(1 0 0 1 495.868 1126)">
   <path d="M32.2754-81.5918L95.459-81.5918C95.459-82.8613 94.5312-84.0332 93.2129-84.0332L34.4727-84.0332C33.1543-84.0332 32.2754-82.8613 32.2754-81.5918ZM23.2422-71.0449L104.492-71.0449C104.492-72.3145 103.564-73.4863 102.246-73.4863L25.4395-73.4863C24.1211-73.4863 23.1934-72.3145 23.2422-71.0449ZM25 16.2598L102.734 16.2598C110.889 16.2598 115.234 11.8164 115.234 3.71094L115.234-49.1211C115.234-57.1777 110.889-61.6699 102.734-61.6699L25-61.6699C16.7969-61.6699 12.4512-57.3242 12.4512-49.1211L12.4512 3.71094C12.4512 11.9141 16.7969 16.2598 25 16.2598ZM25.0977 13.8672C18.3594 13.8672 14.8438 10.4004 14.8438 3.61328L14.8438-49.0234C14.8438-55.7617 18.3594-59.2773 25.0977-59.2773L102.588-59.2773C109.082-59.2773 112.842-55.7617 112.842-49.0234L112.842 3.61328C112.842 10.4004 109.082 13.8672 102.588 13.8672Z"/>
  </g>
  <g id="Black-S" transform="matrix(1 0 0 1 2880.28 696)">
   <path d="M27.5391-78.6133L78.9062-78.6133C78.5156-82.9102 75.5859-85.4492 71.0938-85.4492L35.3516-85.4492C30.8594-85.4492 27.9297-82.9102 27.5391-78.6133ZM19.9219-65.0391L86.5234-65.0391C86.1328-69.4824 83.3984-72.3633 78.0273-72.3633L28.418-72.3633C23.0469-72.3633 20.3125-69.4824 19.9219-65.0391ZM25 13.6719L81.25 13.6719C90.8203 13.6719 96.4844 8.00781 96.4844-1.5625L96.4844-42.9688C96.4844-52.5391 90.8203-58.2031 81.25-58.2031L25-58.2031C15.4297-58.2031 9.76562-52.5391 9.76562-42.9688L9.76562-1.5625C9.76562 8.00781 15.4297 13.6719 25 13.6719ZM27.2461-0.488281C25-0.488281 23.9258-1.36719 23.9258-3.80859L23.9258-40.7227C23.9258-43.1641 25-44.043 27.2461-44.043L79.0039-44.043C81.25-44.043 82.3242-43.1641 82.3242-40.7227L82.3242-3.80859C82.3242-1.36719 81.25-0.488281 79.0039-0.488281Z"/>
  </g>
  <g id="Heavy-S" transform="matrix(1 0 0 1 2584.08 696)">
   <path d="M27.1484-77.3926L78.2227-77.3926C77.8809-81.543 75.1465-83.9355 70.752-83.9355L34.6191-83.9355C30.2246-83.9355 27.5391-81.543 27.1484-77.3926ZM19.5312-64.4043L85.8398-64.4043C85.3516-68.75 82.8613-71.4355 77.6855-71.4355L27.6855-71.4355C22.5098-71.4355 20.0195-68.75 19.5312-64.4043ZM24.3652 12.4512L80.8594 12.4512C90.1367 12.4512 95.459 7.17773 95.459-2.05078L95.459-43.2617C95.459-52.4902 90.1367-57.7637 80.8594-57.7637L24.3652-57.7637C15.0391-57.7637 9.76562-52.4902 9.76562-43.2617L9.76562-2.05078C9.76562 7.17773 15.0391 12.4512 24.3652 12.4512ZM26.0742 0C23.5352 0 22.2656-1.12305 22.2656-3.85742L22.2656-41.4551C22.2656-44.1895 23.5352-45.3125 26.0742-45.3125L79.1504-45.3125C81.6895-45.3125 82.959-44.1895 82.959-41.4551L82.959-3.85742C82.959-1.12305 81.6895 0 79.1504 0Z"/>
  </g>
  <g id="Bold-S" transform="matrix(1 0 0 1 2287.95 696)">
   <path d="M26.709-76.0254L77.4414-76.0254C77.0996-80.0293 74.6094-82.2266 70.3613-82.2266L33.8379-82.2266C29.541-82.2266 27.0508-80.0293 26.709-76.0254ZM19.0918-63.7207L85.0586-63.7207C84.5215-67.9199 82.2266-70.4102 77.3438-70.4102L26.8555-70.4102C21.9238-70.4102 19.6777-67.9199 19.0918-63.7207ZM23.6328 11.1328L80.4199 11.1328C89.3555 11.1328 94.2871 6.25 94.2871-2.63672L94.2871-43.5547C94.2871-52.4414 89.3555-57.3242 80.4199-57.3242L23.6328-57.3242C14.6484-57.3242 9.76562-52.4414 9.76562-43.5547L9.76562-2.63672C9.76562 6.25 14.6484 11.1328 23.6328 11.1328ZM24.8047 0.537109C21.9238 0.537109 20.3613-0.878906 20.3613-3.90625L20.3613-42.2363C20.3613-45.3125 21.9238-46.7285 24.8047-46.7285L79.248-46.7285C82.1289-46.7285 83.6914-45.3125 83.6914-42.2363L83.6914-3.90625C83.6914-0.878906 82.1289 0.537109 79.248 0.537109Z"/>
  </g>
  <g id="Semibold-S" transform="matrix(1 0 0 1 1991.63 696)">
   <path d="M26.416-75.0977L76.9531-75.0977C76.6113-78.9551 74.2676-81.0547 70.0684-81.0547L33.252-81.0547C29.0527-81.0547 26.709-78.9551 26.416-75.0977ZM18.7988-63.2324L84.5215-63.2324C83.9355-67.334 81.7871-69.7266 77.0996-69.7266L26.2695-69.7266C21.5332-69.7266 19.4336-67.334 18.7988-63.2324ZM23.0957 10.2051L80.127 10.2051C88.8672 10.2051 93.5059 5.61523 93.5059-2.97852L93.5059-43.7988C93.5059-52.3926 88.8672-56.9824 80.127-56.9824L23.0957-56.9824C14.3555-56.9824 9.76562-52.3926 9.76562-43.7988L9.76562-2.97852C9.76562 5.61523 14.3555 10.2051 23.0957 10.2051ZM23.877 0.927734C20.752 0.927734 19.0918-0.683594 19.0918-3.95508L19.0918-42.8223C19.0918-46.0938 20.752-47.7051 23.877-47.7051L79.3457-47.7051C82.4707-47.7051 84.1797-46.0938 84.1797-42.8223L84.1797-3.95508C84.1797-0.683594 82.4707 0.927734 79.3457 0.927734Z"/>
  </g>
  <g id="Medium-S" transform="matrix(1 0 0 1 1695.24 696)">
   <path d="M26.1719-74.3652L76.5137-74.3652C76.2207-78.1738 74.0234-80.1758 69.873-80.1758L32.8125-80.1758C28.7109-80.1758 26.4648-78.1738 26.1719-74.3652ZM18.6035-62.8418L84.1309-62.8418C83.4961-66.8945 81.4941-69.1895 76.9043-69.1895L25.8301-69.1895C21.2402-69.1895 19.2383-66.8945 18.6035-62.8418ZM22.7051 9.52148L79.9316 9.52148C88.4277 9.52148 92.8711 5.17578 92.8711-3.27148L92.8711-43.9453C92.8711-52.3926 88.4277-56.7383 79.9316-56.7383L22.7051-56.7383C14.1602-56.7383 9.76562-52.3926 9.76562-43.9453L9.76562-3.27148C9.76562 5.17578 14.1602 9.52148 22.7051 9.52148ZM23.1934 1.17188C19.9219 1.17188 18.0664-0.537109 18.0664-4.00391L18.0664-43.2129C18.0664-46.6797 19.9219-48.4375 23.1934-48.4375L79.4434-48.4375C82.7148-48.4375 84.5703-46.6797 84.5703-43.2129L84.5703-4.00391C84.5703-0.537109 82.7148 1.17188 79.4434 1.17188Z"/>
  </g>
  <g id="Regular-S" transform="matrix(1 0 0 1 1398.92 696)">
   <path d="M25.8789-73.4375L76.0254-73.4375C75.7324-77.1484 73.6328-79.0039 69.6289-79.0039L32.2754-79.0039C28.2227-79.0039 26.1719-77.1484 25.8789-73.4375ZM18.3105-62.3535L83.5938-62.3535C82.9102-66.3574 81.0547-68.457 76.6602-68.457L25.2441-68.457C20.8496-68.457 18.9941-66.3574 18.3105-62.3535ZM22.2168 8.59375L79.6387 8.59375C87.9395 8.59375 92.0898 4.54102 92.0898-3.66211L92.0898-44.1406C92.0898-52.3438 87.9395-56.3965 79.6387-56.3965L22.2168-56.3965C13.8672-56.3965 9.76562-52.3438 9.76562-44.1406L9.76562-3.66211C9.76562 4.54102 13.8672 8.59375 22.2168 8.59375ZM22.3145 1.5625C18.7988 1.5625 16.7969-0.341797 16.7969-4.05273L16.7969-43.7988C16.7969-47.4609 18.7988-49.3652 22.3145-49.3652L79.541-49.3652C83.0566-49.3652 85.0586-47.4609 85.0586-43.7988L85.0586-4.05273C85.0586-0.341797 83.0566 1.5625 79.541 1.5625Z"/>
  </g>
  <g id="Light-S" transform="matrix(1 0 0 1 1102.47 696)">
   <path d="M25.6836-72.8516L75.6348-72.8516C75.4395-75.6836 73.7793-77.2461 70.7031-77.2461L30.6152-77.2461C27.5391-77.2461 25.8789-75.6836 25.6836-72.8516ZM18.2617-62.6465L83.0566-62.6465C82.5684-65.6738 81.1035-67.4316 77.7344-67.4316L23.584-67.4316C20.2637-67.4316 18.75-65.6738 18.2617-62.6465ZM21.3867 7.51953L79.8828 7.51953C87.5977 7.51953 91.5527 3.61328 91.5527-4.00391L91.5527-44.7754C91.5527-52.3926 87.5977-56.25 79.8828-56.25L21.3867-56.25C13.6719-56.25 9.76562-52.3926 9.76562-44.7754L9.76562-4.00391C9.76562 3.66211 13.6719 7.51953 21.3867 7.51953ZM21.4844 2.09961C17.4316 2.09961 15.1855-0.0976562 15.1855-4.29688L15.1855-44.4824C15.1855-48.6816 17.4316-50.8301 21.4844-50.8301L79.7852-50.8301C83.7891-50.8301 86.084-48.6816 86.084-44.4824L86.084-4.29688C86.084-0.0976562 83.7891 2.09961 79.7852 2.09961Z"/>
  </g>
  <g id="Thin-S" transform="matrix(1 0 0 1 806.129 696)">
   <path d="M25.4395-72.0703L75.1465-72.0703C75.0488-73.8281 73.9746-75 72.1191-75L28.4668-75C26.6113-75 25.5371-73.8281 25.4395-72.0703ZM18.2617-63.0371L82.3242-63.0371C82.1777-64.8438 81.1035-66.1133 79.1504-66.1133L21.3867-66.1133C19.4336-66.1133 18.4082-64.8438 18.2617-63.0371ZM20.3125 6.10352L80.2246 6.10352C87.207 6.10352 90.8203 2.44141 90.8203-4.39453L90.8203-45.5566C90.8203-52.3926 87.207-56.1035 80.2246-56.1035L20.3125-56.1035C13.3789-56.1035 9.76562-52.4902 9.76562-45.5566L9.76562-4.39453C9.76562 2.49023 13.3789 6.10352 20.3125 6.10352ZM20.4102 2.7832C15.625 2.7832 13.0859 0.244141 13.0859-4.58984L13.0859-45.4102C13.0859-50.2441 15.625-52.7832 20.4102-52.7832L80.127-52.7832C84.8145-52.7832 87.5-50.2441 87.5-45.4102L87.5-4.58984C87.5 0.244141 84.8145 2.7832 80.127 2.7832Z"/>
  </g>
  <g id="Ultralight-S" transform="matrix(1 0 0 1 509.613 696)">
   <path d="M25.3418-71.6797L74.8535-71.6797C74.8535-72.8516 74.0723-73.8281 72.8516-73.8281L27.3438-73.8281C26.123-73.8281 25.3418-72.8516 25.3418-71.6797ZM18.2129-63.2324L81.9824-63.2324C81.9336-64.4043 81.1523-65.3809 79.9316-65.3809L20.2637-65.3809C19.043-65.3809 18.2617-64.4043 18.2129-63.2324ZM19.7754 5.32227L80.4199 5.32227C86.9629 5.32227 90.4297 1.80664 90.4297-4.63867L90.4297-45.9961C90.4297-52.4414 86.9629-55.957 80.4199-55.957L19.7754-55.957C13.2324-55.957 9.76562-52.5391 9.76562-45.9961L9.76562-4.63867C9.76562 1.9043 13.2324 5.32227 19.7754 5.32227ZM19.873 3.125C14.6484 3.125 11.9629 0.439453 11.9629-4.73633L11.9629-45.8984C11.9629-51.0742 14.6484-53.7598 19.873-53.7598L80.3223-53.7598C85.3516-53.7598 88.2324-51.0742 88.2324-45.8984L88.2324-4.73633C88.2324 0.439453 85.3516 3.125 80.3223 3.125Z"/>
  </g>
 </g>
</svg>
