<svg height="512pt" viewBox="0 -2 512.001 512" width="512pt" xmlns="http://www.w3.org/2000/svg"><path d="m15.007812 489.363281h-15.007812v-238.242187h15.007812c3.023438 0 6.210938.015625 9.539063.03125 42.265625.195312 113.03125.523437 146.128906-32.425782 13.085938-13.023437 19.449219-30.25 19.449219-52.660156 0-37.140625 13.539062-68.902344 40.246094-94.402344 21.457031-20.488281 51.589844-36.886718 89.554687-48.738281 60.699219-18.949219 129.792969-22.925781 177.066407-22.925781h15.007812v87.0625h-15.007812c-59.222657 0-96.625 11.09375-117.574219 20.398438-39.84375 17.699218-59.210938 45.199218-59.210938 84.074218 0 10.785156 2.25 24.828125 4.855469 41.085938 8.171875 50.972656 19.363281 120.789062-27.472656 175.726562-46.46875 54.515625-138.90625 81.015625-282.582032 81.015625zm0 0" fill="#a3efff"/><path d="m319.925781 22.925781c-24.714843 7.714844-46.082031 17.367188-63.925781 28.808594v391.105469c16.570312-9.890625 30.414062-21.378906 41.59375-34.492188 46.835938-54.9375 35.644531-124.753906 27.472656-175.726562-2.605468-16.257813-4.855468-30.300782-4.855468-41.085938 0-38.875 19.367187-66.375 59.210937-84.074218 20.945313-9.304688 58.351563-20.398438 117.570313-20.398438h15.007812v-87.0625h-15.007812c-47.273438 0-116.367188 3.976562-177.066407 22.925781zm0 0" fill="#6ad9eb"/><path d="m116.324219 191.082031h-67.542969c-26.898438 0-48.78125-21.882812-48.78125-48.78125 0-21.832031 14.339844-40.546875 34.542969-46.667969 8.5625-15.023437 24.652343-24.628906 42.382812-24.628906 16.992188 0 32.347657 8.707032 41.144531 22.546875 26.09375.921875 47.035157 22.4375 47.035157 48.75 0 26.898438-21.882813 48.78125-48.78125 48.78125zm0 0" fill="#a7d533"/><path d="m118.070312 93.550781c-8.796874-13.839843-24.148437-22.542969-41.136718-22.546875v120.078125h39.390625c26.898437 0 48.78125-21.882812 48.78125-48.78125 0-26.3125-20.941407-47.828125-47.035157-48.75zm0 0" fill="#49ba6e"/><path d="m349.515625 508.257812c-8.289063 0-15.007813-6.722656-15.007813-15.011718v-60.734375c0-8.292969 6.71875-15.011719 15.007813-15.011719 8.292969 0 15.011719 6.71875 15.011719 15.011719v60.734375c0 8.289062-6.71875 15.011718-15.011719 15.011718zm0 0" fill="#af5a2b"/><path d="m364.527344 493.246094v-60.734375c0-8.292969-6.71875-15.011719-15.011719-15.011719v90.757812c8.292969 0 15.011719-6.722656 15.011719-15.011718zm0 0" fill="#704530"/><path d="m345.488281 445.800781c-24.324219 0-56.894531-5.574219-73.953125-32.136719-7.398437-11.527343-9.839844-24.121093-9.847656-33.953124-19.464844-12.402344-31.539062-33.957032-31.539062-57.585938 0-17.835938 6.972656-34.765625 19.113281-47.375-2.769531-6.789062-4.203125-14.074219-4.203125-21.578125 0-28.925781 21.574218-52.90625 49.480468-56.703125 6.246094-24.828125 28.761719-43.257812 55.5-43.257812 26.796876 0 49.347657 18.511718 55.542969 43.417968 27.375 4.257813 48.394531 27.992188 48.394531 56.546875 0 7.5-1.433593 14.785157-4.203124 21.574219 12.144531 12.609375 19.113281 29.539062 19.113281 47.375 0 23.972656-12.429688 45.808594-32.390625 58.121094-.910156 8.925781-4.257813 19.613281-10.453125 29.261718-10.628907 16.554688-33.238281 36.292969-80.554688 36.292969zm0 0" fill="#349e6b"/><path d="m453.976562 253.175781c0-28.554687-21.019531-52.289062-48.394531-56.546875-6.195312-24.90625-28.746093-43.417968-55.542969-43.417968-.175781 0-.347656.011718-.523437.011718v292.523438c44.582031-1.089844 66.203125-20.160156 76.527344-36.242188 6.195312-9.644531 9.539062-20.335937 10.453125-29.257812 19.960937-12.3125 32.386718-34.148438 32.386718-58.125 0-17.832032-6.96875-34.761719-19.109374-47.375 2.769531-6.785156 4.203124-14.070313 4.203124-21.570313zm0 0" fill="#227351"/></svg>