<?xml version="1.0" encoding="iso-8859-1"?>
<!-- Generator: Adobe Illustrator 19.0.0, SVG Export Plug-In . SVG Version: 6.00 Build 0)  -->
<svg version="1.1" id="Capa_1" xmlns="http://www.w3.org/2000/svg" xmlns:xlink="http://www.w3.org/1999/xlink" x="0px" y="0px"
	 viewBox="0 0 512 512" style="enable-background:new 0 0 512 512;" xml:space="preserve">
<g>
	<path style="fill:#4CE079;" d="M445.626,140.33c16.008,0,28.985,13.171,28.985,29.418H416.64
		C416.641,153.501,429.618,140.33,445.626,140.33z"/>
	<path style="fill:#4CE079;" d="M396.081,148.218c11.716,0,21.214,9.639,21.214,21.53h-42.427
		C374.868,157.857,384.365,148.218,396.081,148.218z"/>
</g>
<g>
	<path style="fill:#32CC65;" d="M455.689,142.154c-3.135-1.178-6.524-1.824-10.063-1.824c-16.008,0-28.985,13.171-28.985,29.418
		h20.125C436.766,157.092,444.641,146.305,455.689,142.154z"/>
	<path style="fill:#32CC65;" d="M406.144,150.793c-14.045-7.696-31.276,2.626-31.276,18.956h20.125
		C394.993,161.554,399.505,154.431,406.144,150.793z"/>
</g>
<g>
	<path style="fill:#4CE079;" d="M109.447,34.747c0-20.002-16.651-36.056-36.652-34.663c-26.251,1.829-41.03,32.465-25.563,54.683
		c0.946,1.359,0.946,3.147,0,4.506c-15.441,22.182-0.725,52.849,25.559,54.683c29.02,2.025,46.965-31.105,30.314-54.806
		c-0.901-1.282-0.901-2.978,0-4.261C107.096,49.208,109.447,42.257,109.447,34.747z"/>
	<path style="fill:#4CE079;" d="M143.422,26.522c26.799,1.867,41.395,33.59,24.849,55.671c-0.558,0.745-0.558,1.785,0,2.529
		c4.859,6.485,7.527,14.753,6.872,23.67c-1.253,17.056-14.905,30.828-31.717,32.001c-29.026,2.025-46.992-31.142-30.284-54.849
		c0.885-1.255,0.885-2.919,0-4.174C96.448,57.685,114.37,24.498,143.422,26.522z"/>
</g>
<g>
	<path style="fill:#32CC65;" d="M67.356,59.273c0.946-1.359,0.946-3.147,0-4.506C53.939,35.494,63.076,8.494,85.282,1.528
		c-3.911-1.22-8.119-1.748-12.488-1.444c-26.251,1.829-41.03,32.465-25.563,54.683c0.946,1.359,0.946,3.147,0,4.506
		c-15.441,22.181-0.726,52.849,25.559,54.683c4.37,0.305,8.58-0.223,12.492-1.444C63.069,105.545,53.944,78.54,67.356,59.273z"/>
	<path style="fill:#32CC65;" d="M133.267,85.545c0.885-1.255,0.885-2.919,0-4.174c-13.508-19.166-4.606-46.418,17.792-53.405
		c-2.444-0.767-5.002-1.26-7.637-1.444c-29.024-2.022-46.987,31.144-30.28,54.849c0.885,1.255,0.885,2.919,0,4.174
		c-16.694,23.687,1.23,56.876,30.284,54.849c2.634-0.184,5.19-0.677,7.633-1.444C128.685,131.971,119.745,104.731,133.267,85.545z"
		/>
</g>
<g>
	<path style="fill:#9B6F43;" d="M75.211,34.839c-4.142,0-7.5,3.408-7.5,7.612v27.076c-3.36-2.39-7.998-1.599-10.395,1.793
		c-2.415,3.416-1.645,8.172,1.721,10.623l8.674,6.318v80.473c0,4.204,3.358,7.612,7.5,7.612s7.5-3.408,7.5-7.612V42.451
		C82.711,38.246,79.353,34.839,75.211,34.839z"/>
	<path style="fill:#9B6F43;" d="M154.735,97.758c-2.399-3.393-7.036-4.185-10.396-1.793V68.888c0-4.204-3.358-7.612-7.5-7.612
		s-7.5,3.408-7.5,7.612V182.18c0,4.204,3.358,7.612,7.5,7.612s7.5-3.408,7.5-7.612v-67.483l8.675-6.318
		C156.379,105.929,157.149,101.174,154.735,97.758z"/>
</g>
<rect x="174.01" y="230.67" style="fill:#3997EE;" width="164" height="176.29"/>
<rect x="174.01" y="230.67" style="fill:#2887CE;" width="26.903" height="176.29"/>
<g>
	<path style="fill:#29B288;" d="M170.101,210.787h-25.77v-31.083c0-6.034-4.864-10.971-10.809-10.971h-88.72
		c-6.974,0-12.628,5.738-12.628,12.817v225.405H180.91V221.758C180.91,215.724,176.046,210.787,170.101,210.787z"/>
	<path style="fill:#29B288;" d="M479.827,406.955v-228.58c0-5.325-4.253-9.641-9.499-9.641h-91.849
		c-5.945,0-10.809,4.937-10.809,10.971v31.083H341.9c-5.945,0-10.809,4.937-10.809,10.971v185.197L479.827,406.955L479.827,406.955z
		"/>
</g>
<path style="fill:#21A378;" d="M151.873,324.448c-4.142,0-7.5-3.408-7.5-7.612v-18.894c0-4.204,3.358-7.612,7.5-7.612
	s7.5,3.408,7.5,7.612v18.894C159.373,321.041,156.015,324.448,151.873,324.448z"/>
<g>
	<path style="fill:#48AEF9;" d="M219.626,358.343c-4.142,0-7.5-3.408-7.5-7.612v-83.11c0-4.204,3.358-7.612,7.5-7.612
		s7.5,3.408,7.5,7.612v83.11C227.126,354.936,223.768,358.343,219.626,358.343z"/>
	<path style="fill:#48AEF9;" d="M248.5,230.669v76.721c0,4.204,3.358,7.612,7.5,7.612c4.142,0,7.5-3.408,7.5-7.612v-76.721H248.5z"
		/>
	<path style="fill:#48AEF9;" d="M294.544,356.767c-4.142,0-7.5-3.408-7.5-7.612v-79.689c0-4.204,3.358-7.612,7.5-7.612
		s7.5,3.408,7.5,7.612v79.689C302.044,353.36,298.686,356.767,294.544,356.767z"/>
	<path style="fill:#48AEF9;" d="M294.544,414.567c-4.142,0-7.5-3.408-7.5-7.612v-23.539c0-4.204,3.358-7.612,7.5-7.612
		s7.5,3.408,7.5,7.612v23.539C302.044,411.159,298.686,414.567,294.544,414.567z"/>
	<path style="fill:#48AEF9;" d="M256,370.113c-4.142,0-7.5-3.408-7.5-7.612v-23.539c0-4.204,3.358-7.612,7.5-7.612
		c4.142,0,7.5,3.408,7.5,7.612v23.539C263.5,366.706,260.142,370.113,256,370.113z"/>
</g>
<g>
	<path style="fill:#4CE079;" d="M73.956,368.875c-20.722,0-37.52,17.049-37.52,38.08h75.04
		C111.476,385.924,94.678,368.875,73.956,368.875z"/>
	<path style="fill:#4CE079;" d="M138.09,379.085c-15.166,0-27.46,12.478-27.46,27.87h54.919
		C165.549,391.563,153.255,379.085,138.09,379.085z"/>
	<path style="fill:#4CE079;" d="M458.148,258.672c0-21.287-17.73-38.371-39.019-36.871c-18.033,1.27-32.595,16.146-33.743,34.455
		c-0.544,8.673,1.865,16.752,6.301,23.308c1.141,1.686,1.141,3.918,0,5.604c-4.435,6.555-6.844,14.632-6.301,23.304
		c1.146,18.309,15.707,33.187,33.739,34.459c21.291,1.502,39.023-15.582,39.023-36.871c0-7.714-2.331-14.873-6.313-20.798
		c-1.173-1.745-1.173-4.047,0-5.792C455.818,273.545,458.148,266.385,458.148,258.672z"/>
</g>
<g>
	<path style="fill:#21A378;" d="M360.106,236.078c4.142,0,7.5-3.408,7.5-7.612v-17.679h-15v17.679
		C352.606,232.671,355.964,236.078,360.106,236.078z"/>
	<path style="fill:#21A378;" d="M64.926,168.733H44.801c-6.974,0-12.628,5.738-12.628,12.817v225.405h20.125V181.55
		C52.298,174.471,57.952,168.733,64.926,168.733z"/>
	<path style="fill:#21A378;" d="M362.024,210.787h-20.125c-5.945,0-10.809,4.937-10.809,10.971v185.197h20.125V221.758
		C351.215,215.724,356.079,210.787,362.024,210.787z"/>
	<path style="fill:#21A378;" d="M387.794,179.704c0-6.034,4.864-10.971,10.809-10.971h-20.125c-5.945,0-10.809,4.937-10.809,10.971
		v31.083h12.809c4.04,0,7.316-3.324,7.316-7.425V179.704z"/>
</g>
<g>
	<path style="fill:#32CC65;" d="M84.019,370.271c-3.203-0.903-6.575-1.397-10.063-1.397c-20.722,0-37.52,17.049-37.52,38.08h20.125
		C56.561,389.463,68.186,374.736,84.019,370.271z"/>
	<path style="fill:#32CC65;" d="M148.152,381.025c-3.117-1.247-6.509-1.94-10.063-1.94c-15.166,0-27.46,12.478-27.46,27.87h20.125
		C130.755,395.169,137.966,385.1,148.152,381.025z"/>
	<path style="fill:#32CC65;" d="M411.812,285.167c1.141-1.686,1.141-3.918,0-5.604c-4.436-6.556-6.845-14.634-6.301-23.307
		c0.985-15.702,11.839-28.87,26.283-33.106c-22.641-6.596-44.962,10.033-46.408,33.106c-0.544,8.673,1.865,16.752,6.301,23.307
		c1.141,1.686,1.141,3.918,0,5.604c-4.435,6.555-6.844,14.632-6.301,23.303c1.146,18.309,15.707,33.187,33.739,34.459
		c4.42,0.312,8.683-0.188,12.669-1.349C407.99,334.601,397.771,305.918,411.812,285.167z"/>
</g>
<path style="fill:#21A378;" d="M144.373,210.826v55.423c0,4.204,3.358,7.612,7.5,7.612s7.5-3.408,7.5-7.612v-55.423L144.373,210.826
	L144.373,210.826z"/>
<path style="fill:#77CFF2;" d="M285.855,68.99c0.968-15.349,13.263-27.772,28.389-28.706c7.208-0.445,8.729,1.779,10.671-0.634
	c4.437-5.514,11.185-9.035,18.748-9.035c1.66,0,3.28,0.172,4.845,0.497c1.583,0.328,3.122-0.621,3.595-2.189
	C357.162,12.178,372.506,0,390.662,0c21.673,0,39.348,17.35,40.29,39.111c0.001,0.012,0.005,0.02,0.006,0.032
	c0.22,2.86,3.509,2.302,3.509,2.302l-0.004,0.007c2.424-0.455,4.948-0.621,7.54-0.445c14.829,1.009,26.853,13.198,27.857,28.247
	c1.185,17.768-12.664,32.555-29.918,32.555c-3.385,0-120.437,0-123.811,0C298.713,101.81,284.724,86.914,285.855,68.99z"/>
<path style="fill:#48AEF9;" d="M363.039,46.66c-5.428-4.33-11.907-7.091-18.805-7.981c-1.515-2.709-3.252-5.25-5.177-7.611
	c-5.666,1.11-10.629,4.217-14.142,8.582c-1.952,2.426-3.41,0.185-10.671,0.634c-15.126,0.934-27.421,13.358-28.389,28.706
	c-1.131,17.923,12.858,32.819,30.274,32.819h89.337C412.231,74.562,392.598,46.995,363.039,46.66z"/>
<path style="fill:#A4D9F4;" d="M389.236,89.258c-0.836-13.246-11.446-23.967-24.499-24.773c-2.263-0.14-4.468,0.015-6.582,0.426
	c-0.989,0.192-1.99-0.181-2.627-0.973c-3.829-4.758-9.653-7.797-16.18-7.797c-1.432,0-2.83,0.148-4.181,0.429
	c-1.366,0.283-2.694-0.536-3.103-1.889c-4.365-14.45-17.607-24.96-33.275-24.96c-16.799,0-32.909,12.183-34.775,33.78
	c-0.19,2.468-3.028,1.987-3.028,1.987l0.004,0.006c-15.57-2.921-29.535,8.826-30.547,23.993
	c-1.023,15.333,10.929,28.094,25.819,28.094c10.118,0,95.195,0,106.847,0C378.14,117.581,390.212,104.726,389.236,89.258z"/>
<g>
	<path style="fill:#77CFF2;" d="M277.734,63.732l-0.004-0.006c1.416,0.24,2.985-0.274,3.136-2.083
		c0.614-14.19,9.209-26.27,21.338-31.748c-1.124-0.111-2.262-0.175-3.414-0.175c-16.799,0-32.909,12.183-34.775,33.78
		c-0.068,0.882-0.476,1.384-0.97,1.669C267.766,63.266,272.822,62.81,277.734,63.732z"/>
	<path style="fill:#77CFF2;" d="M246.155,88.536c0.693-10.384,7.268-19.237,16.332-23.134c-0.753,0.21-1.5,0.086-1.5,0.086
		l0.004,0.006c-15.57-2.921-29.535,8.826-30.547,23.993c-1.023,15.333,10.929,28.094,25.819,28.094c6.301,0,10.179,0,16.584,0
		C257.453,117.581,245.097,104.388,246.155,88.536z"/>
</g>
<path style="fill:#9B6F43;" d="M421.729,259.255c-4.142,0-7.5,3.408-7.5,7.612v29.743c-4.654-3.39-9.015-1.769-11.148,1.251
	c-2.415,3.415-1.644,8.171,1.721,10.622l9.427,6.866v79.493c0,4.204,3.358,7.612,7.5,7.612s7.5-3.408,7.5-7.612V266.867
	C429.229,262.662,425.872,259.255,421.729,259.255z"/>
<g>
	<path style="fill:#4CE079;" d="M383.971,368.875c-20.722,0-37.52,17.049-37.52,38.08h75.04
		C421.491,385.924,404.692,368.875,383.971,368.875z"/>
	<path style="fill:#4CE079;" d="M448.104,379.085c-15.166,0-27.46,12.478-27.46,27.87h54.919
		C475.564,391.563,463.27,379.085,448.104,379.085z"/>
</g>
<g>
	<path style="fill:#32CC65;" d="M394.033,370.271c-3.204-0.903-6.575-1.397-10.063-1.397c-20.722,0-37.52,17.049-37.52,38.08h20.125
		C366.576,389.463,378.2,374.736,394.033,370.271z"/>
	<path style="fill:#32CC65;" d="M458.167,381.025c-18.009-7.206-37.522,6.309-37.522,25.93h20.125
		C440.769,395.169,447.981,385.1,458.167,381.025z"/>
</g>
<path style="fill:#48AEF9;" d="M503.238,399.343H8.762c-4.831,0-8.747,3.974-8.747,8.877v94.903c0,4.903,3.916,8.877,8.747,8.877
	h494.476c4.831,0,8.747-3.974,8.747-8.877V408.22C511.984,403.317,508.068,399.343,503.238,399.343z"/>
<path style="fill:#3997EE;" d="M20.016,503.123V408.22c0-4.903,3.916-8.877,8.747-8.877h-20c-4.831,0-8.747,3.974-8.747,8.877
	v94.903c0,4.903,3.916,8.877,8.747,8.877h20C23.932,512,20.016,508.026,20.016,503.123z"/>
<g>
	<path style="fill:#A4D9F4;" d="M60.895,455.637c0,4.204,3.357,7.612,7.5,7.612h314.878c4.143,0,7.5-3.408,7.5-7.612
		s-3.357-7.612-7.5-7.612H68.395C64.252,448.025,60.895,451.433,60.895,455.637z"/>
	<path style="fill:#A4D9F4;" d="M423.947,463.318h19.658c4.143,0,7.5-3.408,7.5-7.612s-3.357-7.612-7.5-7.612h-19.658
		c-4.143,0-7.5,3.408-7.5,7.612S419.805,463.318,423.947,463.318z"/>
</g>
<g>
</g>
<g>
</g>
<g>
</g>
<g>
</g>
<g>
</g>
<g>
</g>
<g>
</g>
<g>
</g>
<g>
</g>
<g>
</g>
<g>
</g>
<g>
</g>
<g>
</g>
<g>
</g>
<g>
</g>
</svg>
