<?xml version="1.0" encoding="UTF-8"?>
<svg width="512px" height="512px" viewBox="0 0 512 512" xmlns="http://www.w3.org/2000/svg" xmlns:xlink="http://www.w3.org/1999/xlink" version="1.1">
 <!-- Generated by Pixelmator Pro 2.0.3 -->
 <g id="group">
  <path id="Path" d="M496.08 419.873 C502.951 415.445 511.999 420.336 511.999 428.511 L511.999 501.695 C511.999 505.064 510.371 508.062 507.868 509.936 L339.413 425.966 C348.406 422.536 351.693 415.211 365.693 415.211 383.979 415.211 383.979 427.707 402.275 427.707 420.561 427.707 420.561 415.211 438.846 415.211 457.132 415.211 457.132 427.707 475.417 427.707 486.129 427.707 490.57 423.424 496.08 419.873 Z" fill="#9dc6fb" fill-opacity="1" stroke="none"/>
  <path id="Path-1" d="M364.535 415.23 C351.508 415.623 348.154 422.63 339.418 425.964 339.418 425.964 339.418 425.965 339.419 425.966 L507.87 509.936 C510.373 508.062 512 505.065 512.001 501.697 L512.001 488.74 364.541 415.234 C364.538 415.232 364.536 415.231 364.535 415.23 Z" fill="#80b4fb" fill-opacity="1" stroke="none"/>
  <path id="Path-2" d="M507.868 509.936 C506.148 511.234 504.015 511.996 501.697 511.996 L10.302 511.996 C4.615 511.996 0 507.381 0 501.695 L0 416.952 C0 412.759 2.545 408.978 6.439 407.402 L26.301 399.356 C105.924 367.122 194.292 366.102 274.039 395.616 284.58 399.507 295.797 404.245 308.014 410.306 Z" fill="#f1d59d" fill-opacity="1" stroke="none"/>
  <path id="Path-3" d="M507.868 509.936 C506.148 511.234 504.015 511.996 501.697 511.996 L156.649 511.996 C214.906 492.927 259.482 449.371 274.038 395.616 L274.038 395.606 C284.572 399.523 295.797 404.236 308.013 410.307 Z" fill="#ecc373" fill-opacity="1" stroke="none"/>
  <g id="group-1">
   <path id="Path-4" d="M215.807 87.667 C215.195 87.667 214.573 87.594 213.952 87.441 209.809 86.42 207.278 82.233 208.299 78.09 L213.28 57.882 C214.301 53.739 218.489 51.211 222.631 52.229 226.774 53.25 229.305 57.437 228.284 61.58 L223.303 81.788 C222.434 85.31 219.278 87.667 215.807 87.667 Z" fill="#595959" fill-opacity="1" stroke="none"/>
  </g>
  <g id="group-2">
   <path id="Path-5" d="M131.632 429.187 C131.02 429.187 130.398 429.114 129.777 428.961 125.634 427.94 123.103 423.753 124.124 419.61 L178.414 199.34 C179.436 195.197 183.622 192.668 187.765 193.687 191.908 194.708 194.439 198.895 193.418 203.038 L139.128 423.308 C138.259 426.829 135.104 429.187 131.632 429.187 Z" fill="#595959" fill-opacity="1" stroke="none"/>
  </g>
  <g id="group-3">
   <path id="Path-6" d="M150.894 449.997 C146.627 449.997 143.168 446.538 143.168 442.271 143.168 435.055 137.297 429.184 130.081 429.184 122.865 429.184 116.994 435.055 116.994 442.271 116.994 446.538 113.535 449.997 109.268 449.997 105.001 449.997 101.542 446.538 101.542 442.271 101.542 426.535 114.345 413.732 130.081 413.732 145.817 413.732 158.62 426.535 158.62 442.271 158.621 446.538 155.161 449.997 150.894 449.997 Z" fill="#ecc373" fill-opacity="1" stroke="none"/>
  </g>
  <g id="group-4">
   <path id="Path-7" d="M180.033 461.445 C175.766 461.445 172.307 457.986 172.307 453.719 172.307 446.503 166.436 440.632 159.22 440.632 157.095 440.632 155.08 441.119 153.231 442.081 149.445 444.05 144.78 442.576 142.811 438.79 140.843 435.004 142.316 430.339 146.102 428.37 150.118 426.282 154.654 425.178 159.22 425.178 174.956 425.178 187.759 437.981 187.759 453.717 187.759 457.985 184.3 461.445 180.033 461.445 Z" fill="#ecc373" fill-opacity="1" stroke="none"/>
  </g>
  <g id="group-5">
   <path id="Path-8" d="M80.13 461.445 C75.863 461.445 72.404 457.986 72.404 453.719 72.404 437.983 85.207 425.18 100.943 425.18 105.509 425.18 110.045 426.284 114.061 428.372 117.847 430.34 119.32 435.005 117.352 438.792 115.384 442.578 110.718 444.053 106.932 442.083 105.083 441.121 103.068 440.634 100.943 440.634 93.727 440.634 87.856 446.505 87.856 453.721 87.857 457.985 84.397 461.445 80.13 461.445 Z" fill="#ecc373" fill-opacity="1" stroke="none"/>
  </g>
  <g id="group-6">
   <path id="Path-9" d="M244.553 438.55 L234.147 438.55 C229.88 438.55 226.421 435.091 226.421 430.824 226.421 426.557 229.88 423.098 234.147 423.098 L244.553 423.098 C248.82 423.098 252.279 426.557 252.279 430.824 252.279 435.091 248.82 438.55 244.553 438.55 Z" fill="#ecc373" fill-opacity="1" stroke="none"/>
  </g>
  <g id="group-7">
   <path id="Path-10" d="M267.447 492.664 L257.04 492.664 C252.773 492.664 249.314 489.205 249.314 484.938 249.314 480.671 252.773 477.212 257.04 477.212 L267.446 477.212 C271.713 477.212 275.172 480.671 275.172 484.938 275.173 489.205 271.714 492.664 267.447 492.664 Z" fill="#eab14d" fill-opacity="1" stroke="none"/>
  </g>
  <g id="group-8">
   <path id="Path-11" d="M371.512 490.583 L361.106 490.583 C356.839 490.583 353.38 487.124 353.38 482.857 353.38 478.59 356.839 475.131 361.106 475.131 L371.512 475.131 C375.779 475.131 379.238 478.59 379.238 482.857 379.238 487.124 375.779 490.583 371.512 490.583 Z" fill="#eab14d" fill-opacity="1" stroke="none"/>
  </g>
  <g id="group-9">
   <path id="Path-12" d="M38.504 483.298 L28.098 483.298 C23.831 483.298 20.372 479.839 20.372 475.572 20.372 471.305 23.831 467.846 28.098 467.846 L38.504 467.846 C42.771 467.846 46.23 471.305 46.23 475.572 46.23 479.839 42.771 483.298 38.504 483.298 Z" fill="#ecc373" fill-opacity="1" stroke="none"/>
  </g>
  <g id="group-10">
   <path id="Path-13" d="M154.016 494.745 L143.61 494.745 C139.343 494.745 135.884 491.286 135.884 487.019 135.884 482.752 139.343 479.293 143.61 479.293 L154.016 479.293 C158.283 479.293 161.742 482.752 161.742 487.019 161.742 491.286 158.283 494.745 154.016 494.745 Z" fill="#ecc373" fill-opacity="1" stroke="none"/>
  </g>
  <g id="group-11">
   <g id="group-12">
    <path id="Path-14" d="M238.457 214.138 L277.863 204.565 317.269 233.563 317.268 233.565 356.614 243.262 C364.079 245.102 370.833 238.418 369.12 230.923 353.728 163.589 288.8 97.935 215.802 79.939 142.805 61.942 54.791 89.914 9.878 142.382 4.878 148.223 7.753 157.279 15.219 159.119 L54.558 168.813 106.695 155.41 133.377 188.242 238.458 214.141 Z" fill="#e28086" fill-opacity="1" stroke="none"/>
    <path id="Path-15" d="M277.863 204.565 L317.269 233.563 356.613 243.26 C364.044 245.091 370.837 238.462 369.136 231.001 358.334 183.621 322.989 137.064 277.559 107.348 277.848 114.918 277.122 122.489 275.279 129.968 266.499 165.59 234.509 191.373 191.771 202.631 L238.457 214.138 Z" fill="#dd636e" fill-opacity="1" stroke="none"/>
    <path id="Path-16" d="M215.801 79.939 C238.074 85.429 248.041 145.762 238.458 214.138 L317.27 233.563 C316.573 162.653 271.483 93.663 215.801 79.939 160.118 66.215 88.132 106.349 54.563 168.813 L133.375 188.238 C156.665 123.24 193.528 74.449 215.801 79.939 Z" fill="#f9f6f9" fill-opacity="1" stroke="none"/>
    <path id="Path-17" d="M276.907 121.376 C276.522 124.25 275.982 127.116 275.279 129.968 270.444 149.584 258.565 166.213 241.735 179.081 241.219 190.35 240.141 202.119 238.457 214.138 L317.269 233.563 C316.86 191.894 301.117 150.894 276.907 121.376 Z" fill="#dfdde2" fill-opacity="1" stroke="none"/>
   </g>
  </g>
 </g>
</svg>
